<?xml version="1.0" encoding="utf-8"?>
<!-- Generator: Adobe Illustrator 16.0.4, SVG Export Plug-In . SVG Version: 6.00 Build 0)  -->
<!DOCTYPE svg PUBLIC "-//W3C//DTD SVG 1.1 Tiny//EN" "http://www.w3.org/Graphics/SVG/1.1/DTD/svg11-tiny.dtd">
<svg version="1.1" baseProfile="tiny" id="图层_1"
	 xmlns="http://www.w3.org/2000/svg" xmlns:xlink="http://www.w3.org/1999/xlink" x="0px" y="0px" width="200px" height="200px"
	 viewBox="0 0 200 200" xml:space="preserve">
<g id="XMLID_5_">
	<g>
		<path fill="#F8B133" d="M2.094,79.433h8.233v-7.762c0-0.771,0.043-1.532,0.139-2.283L2.094,79.433z"/>
		<path fill="#FFFFFF" d="M29.591,52.408c5.317,0,10.141,2.154,13.625,5.639c3.484,3.484,5.639,8.308,5.639,13.625v21.183
			c0,0.579,0.472,1.04,1.051,1.04c0.579,0,1.04-0.461,1.04-1.04c0-17.913,7.267-34.133,19.006-45.871
			C81.69,35.245,97.91,27.977,115.822,27.977h51.895v16.959c0,26.103-21.162,47.265-47.273,47.265c-0.686,0-1.254,0.557-1.266,1.243
			c0,0.01,0,0.021,0,0.042c0,0.697,0.568,1.255,1.266,1.255h77.463l-54.727,54.727c-14.438,14.438-34.025,22.556-54.446,22.556
			c-21.645,0-41.251-8.781-55.444-22.964c-14.183-14.193-22.962-33.802-22.962-55.444V79.433v-7.762
			c0-0.771,0.043-1.532,0.139-2.283C11.592,59.826,19.729,52.408,29.591,52.408z M25.475,72.422c1.629,0,2.948-1.319,2.948-2.937
			c0-1.63-1.318-2.949-2.948-2.949c-1.619,0-2.938,1.319-2.938,2.949C22.537,71.104,23.855,72.422,25.475,72.422z"/>
		<path fill="#1D1D1B" d="M25.475,66.537c-1.619,0-2.938,1.319-2.938,2.949c0,1.618,1.318,2.937,2.938,2.937
			c1.629,0,2.948-1.319,2.948-2.937C28.422,67.855,27.104,66.537,25.475,66.537z"/>
	</g>
</g>
<g>
</g>
<g>
</g>
<g>
</g>
<g>
</g>
<g>
</g>
<g>
</g>
<g>
</g>
<g>
</g>
<g>
</g>
<g>
</g>
<g>
</g>
<g>
</g>
<g>
</g>
<g>
</g>
<g>
</g>
</svg>
